<svg width="25" height="25" viewBox="0 0 25 25" fill="none" xmlns="http://www.w3.org/2000/svg">
<path fill-rule="evenodd" clip-rule="evenodd" d="M13.5304 11.228C13.5349 11.228 13.5385 11.2244 13.5385 11.22V11.22C13.5385 11.2119 13.5269 11.2083 13.5223 11.215C13.5221 11.2154 13.5218 11.2157 13.5216 11.2161C13.518 11.2213 13.5219 11.228 13.5282 11.228H13.5304Z" fill="#665075"/>
<path fill-rule="evenodd" clip-rule="evenodd" d="M5 0C2.23858 0 0 2.23858 0 5V20C0 22.7614 2.23858 25 5 25H20C22.7614 25 25 22.7614 25 20V5C25 2.23858 22.7614 0 20 0H5ZM7.77593 18.9148C7.77593 19.939 6.94562 20.7693 5.92137 20.7693V20.7693C4.89713 20.7693 4.06681 19.939 4.06681 18.9148V11.4648C4.06681 10.4405 4.89713 9.61022 5.92137 9.61022V9.61022C6.94562 9.61022 7.77593 10.4405 7.77593 11.4648V18.9148ZM5.92137 8.08714H5.89687C4.65264 8.08714 3.84615 7.22995 3.84615 6.15852C3.84615 5.06357 4.67621 4.23066 5.94566 4.23066C7.21538 4.23066 7.99566 5.06357 8.01994 6.15852C8.01994 7.22995 7.21538 8.08714 5.92137 8.08714ZM21.1538 18.9143C21.1538 19.9388 20.3233 20.7693 19.2988 20.7693V20.7693C18.2743 20.7693 17.4437 19.9388 17.4437 18.9143V14.7992C17.4437 13.2997 16.9077 12.2761 15.5649 12.2761C14.5394 12.2761 13.93 12.9653 13.6615 13.6329C13.564 13.8713 13.5385 14.2028 13.5385 14.5372V18.9185C13.5385 19.9407 12.7098 20.7694 11.6876 20.7694V20.7694C10.6619 20.7694 9.83164 19.9382 9.83567 18.9125C9.84368 16.8696 9.85399 13.599 9.84789 11.5068C9.84487 10.4727 10.693 9.61027 11.7271 9.61027H13.1769C13.3766 9.61027 13.5385 9.77214 13.5385 9.9718V9.9718C13.5385 10.3317 14.0469 10.4961 14.3147 10.2557C14.8655 9.76119 15.6662 9.3483 16.8822 9.3483C19.3238 9.3483 21.1538 10.9428 21.1538 14.3702V18.9143Z" fill="#665075"/>
</svg>
