<svg width="26" height="20" viewBox="0 0 26 20" fill="none" xmlns="http://www.w3.org/2000/svg">
<path d="M13.1357 11.1895C13.5869 11.1895 14.056 10.9424 14.543 10.4482L23.9424 1.07031C23.4984 0.719401 22.7572 0.543945 21.7188 0.543945H4.35938C3.39974 0.543945 2.71582 0.71224 2.30762 1.04883L11.7285 10.4482C12.2227 10.9424 12.6917 11.1895 13.1357 11.1895ZM1.06152 18L8.97852 10.126L1.12598 2.38086C0.868164 2.7819 0.739258 3.42285 0.739258 4.30371V16.1953C0.739258 17.0189 0.84668 17.6204 1.06152 18ZM4.53125 19.9658H21.9014C22.9111 19.9658 23.6416 19.7725 24.0928 19.3857L16.0361 11.3613L15.4561 11.9521C14.7041 12.6755 13.9307 13.0371 13.1357 13.0371C12.3408 13.0371 11.5674 12.6755 10.8154 11.9521L10.2354 11.3721L2.18945 19.3857C2.67643 19.7725 3.45703 19.9658 4.53125 19.9658ZM25.1992 18C25.4141 17.6133 25.5215 17.0117 25.5215 16.1953V4.30371C25.5215 3.43001 25.3926 2.79264 25.1348 2.3916L17.293 10.126L25.1992 18Z" fill="#665075"/>
</svg>
